<?xml version="1.0" encoding="UTF-8"?><svg id="Layer_2" xmlns="http://www.w3.org/2000/svg" viewBox="0 0 606.33 202.86"><g id="Layer_1-2"><g><path d="m290.48,39.22L251.26,0,119.78,131.48l-28.12-28.12-39.22,39.22,55.28,55.28c6.66,6.66,17.45,6.66,24.11,0L290.48,39.22Z"/><rect x="11.47" y="62.42" width="55.47" height="55.4" transform="translate(130.64 126.12) rotate(135)"/></g><g><path d="m551.57,65.92h-73.32v19.64h55.56c1.75,0,2.78,1.54,2.78,3.29,0,5.03.04,12.88-3.38,23.69-.06,0-.12-.02-.18-.02h-50.44l5.63,19.64h36.15c-8.61,14.94-23.29,33.34-48.33,55.39h27.85c42.02-34.2,55.19-76.17,55.19-109.79v-4.33c0-4.15-3.36-7.51-7.51-7.51Z"/><polygon points="562.19 111.55 584.95 111.55 584.95 48.54 606.33 48.54 606.33 202.86 584.95 202.86 584.95 133.67 562.19 133.67 562.19 111.55"/><g><path d="m358.39,134.64c17.23-22.95,19.53-33.04,19.53-46.81v-4.27c0-4.09-3.32-7.41-7.41-7.41h-16.23v-16.13h-20.75v16.13h-9.52v19.37h28.06c1.72,0,3.03,1.55,2.74,3.25-2.12,12.3-13.37,25.07-64.33,83.28h28.18c9.87-11.15,18.11-20.68,24.99-28.93,6.89,19.21,19.22,28.93,19.22,28.93h24.5s-18.85-16.73-28.98-47.41Z"/><rect x="434.85" y="48.54" width="21.59" height="154.33"/><polygon points="381.03 111.55 403.79 111.55 403.79 48.54 425.17 48.54 425.17 202.86 403.79 202.86 403.79 133.67 381.03 133.67 381.03 111.55"/><rect x="301.75" y="76.15" width="16.05" height="19.37"/></g></g><g><path d="m321.21,17.04c-2.52.45-5.16.75-7.71.9v9.84h-2.46v-9.72c-2.67.12-5.22.15-7.44.15l-.36-2.07c5.07,0,11.91-.06,17.79-.9l.18,1.8Zm-2.31-3.93c-3.15-.84-5.55-2.58-6.78-5.01-1.14,2.67-3.66,4.71-6.9,5.64l-1.2-1.92c4.08-1.11,6.81-3.99,6.81-7.29v-1.68h2.52v1.68c0,3.12,2.64,5.67,6.69,6.66l-1.14,1.92Zm6.51-11.37v26.91h-2.46V1.74h2.46Z"/><path d="m355.29,15.36v2.01h-10.74v5.43h-2.49v-5.43h-11.16v-2.01h24.39Zm-21.63-7.56c0-3.33,3.72-5.4,9.42-5.4s9.42,2.07,9.42,5.4-3.72,5.4-9.42,5.4-9.42-2.07-9.42-5.4Zm2.82,18.18h16.14v2.04h-18.6v-7.86h2.46v5.82Zm-.24-18.18c0,2.1,2.73,3.39,6.84,3.39s6.84-1.29,6.84-3.39-2.7-3.42-6.84-3.42-6.84,1.29-6.84,3.42Z"/><path d="m391.26,16.05v1.95h-24.36v-1.95h24.36Zm-1.41-10.26h-21.69v-1.89h9.72V1.32h2.46v2.58h9.51v1.89Zm-4.14,13.74h2.46v8.73h-18.18v-8.73h2.43v2.4h13.29v-2.4Zm-6.63-12.69c5.58,0,8.7,1.29,8.7,3.75s-3.12,3.78-8.7,3.78-8.67-1.29-8.67-3.78,3.09-3.75,8.67-3.75Zm6.63,16.92h-13.29v2.64h13.29v-2.64Zm-6.63-15.21c-3.9,0-6.06.72-6.06,2.04s2.16,2.04,6.06,2.04,6.09-.72,6.09-2.04-2.19-2.04-6.09-2.04Z"/><path d="m407.4,14.37c-1.26,1.59-3.21,2.55-5.52,2.55-3.96,0-6.93-2.82-6.93-6.75s2.97-6.75,6.93-6.75c2.31,0,4.23.96,5.49,2.52h6.84V1.74h2.49v19.86h-2.49v-7.23h-6.81Zm-5.52.39c2.61,0,4.56-1.92,4.56-4.59s-1.95-4.59-4.56-4.59-4.59,1.92-4.59,4.59,1.95,4.59,4.59,4.59Zm15.57,11.25v2.01h-17.97v-8.46h2.49v6.45h15.48Zm-9.03-18.09c.24.69.36,1.44.36,2.25s-.12,1.53-.36,2.22h5.79v-4.47h-5.79Z"/><path d="m438.99,16.62c-5.58.93-12.03,1.08-16.8,1.08l-.24-2.01c1.71,0,3.66-.03,5.7-.06v-5.82h2.43v5.73c2.94-.12,6-.36,8.73-.72l.18,1.8Zm-5.16-3.69c.63-3.09.72-5.4.72-7.11h-10.98v-2.01h13.38v1.41c0,1.77,0,4.44-.69,7.98l-2.43-.27Zm-5.31,13.08h15.42v2.01h-17.88v-7.89h2.46v5.88Zm18.39-15.54v2.04h-3.84v9.48h-2.46V1.71h2.46v8.76h3.84Z"/><path d="m453.75,20.1c4.41,0,8.37-.21,13.08-.96l.24,2.01c-4.86.81-8.94.99-13.56.99h-2.22v-10.32h9.9v-5.61h-9.99v-2.01h12.48v9.6h-9.93v6.3Zm18.06-18.42v26.97h-2.46V1.68h2.46Z"/><path d="m501.69,15.42v1.98h-24.39v-1.98h24.39Zm-18.81,10.53h16.17v2.01h-18.63v-7.86h2.46v5.85Zm16.02-14.13h-18.3V2.7h2.46v7.11h15.84v2.01Z"/></g></g></svg>