<svg xmlns="http://www.w3.org/2000/svg" width="336.743" height="123.676" viewBox="0 0 336.743 123.676">
  <g id="graph_week" transform="translate(-51.107 -216.103)">
    <g id="그룹_11" data-name="그룹 11" transform="translate(61.017 242.06)">
      <path id="패스_23" data-name="패스 23" d="M54.09,320.235l.128-57.132,49.57-4.432,47.753-6.509,44.908-6.556L250,251.915l52.17-10.88L347.749,241v79.235" transform="translate(-60 -241)" opacity="0.05"/>
      <path id="패스_24" data-name="패스 24" d="M347.749,241l-44.576.036L250,251.915l-53.554-6.309-44.908,6.556-47.753,6.509-49.535,4.467" transform="translate(-60 -241)" fill="none" stroke="#000" stroke-miterlimit="10" stroke-width="0.832" opacity="0.15"/>
    </g>
    <g id="그룹_12" data-name="그룹 12" transform="translate(55.188 231.634)">
      <path id="패스_25" data-name="패스 25" d="M162,320.661V263.508l50.319-19.52,47.429,8.743,34.091-22.023v89.661" transform="translate(-162 -231)" fill="#5b6543" opacity="0.15"/>
      <path id="패스_26" data-name="패스 26" d="M162,320.661V263.548l50.759-19.6,47.28,8.56,33.56-21.68" transform="translate(-162 -231)" fill="none" stroke="#5b6543" stroke-miterlimit="10" stroke-width="1" opacity="0.3"/>
    </g>
    <text id="일" transform="translate(55.107 337.778)" fill="#666" font-size="8" font-family="MalgunGothic, Malgun Gothic"><tspan x="-4" y="0">일</tspan></text>
    <text id="월" transform="translate(104.108 337.778)" fill="#666" font-size="8" font-family="MalgunGothic, Malgun Gothic"><tspan x="-4" y="0">월</tspan></text>
    <text id="수" transform="translate(201.108 337.778)" fill="#666" font-size="8" font-family="MalgunGothic, Malgun Gothic"><tspan x="-4" y="0">수</tspan></text>
    <text id="목" transform="translate(250.108 337.778)" fill="#666" font-size="8" font-family="MalgunGothic, Malgun Gothic"><tspan x="-4" y="0">목</tspan></text>
    <text id="금" transform="translate(299.108 337.778)" fill="#666" font-size="8" font-family="MalgunGothic, Malgun Gothic"><tspan x="-4" y="0">금</tspan></text>
    <text id="화" transform="translate(152.108 337.778)" fill="#666" font-size="8" font-family="MalgunGothic, Malgun Gothic"><tspan x="-4" y="0">화</tspan></text>
    <text id="토" transform="translate(348.108 337.778)" fill="#666" font-size="8" font-family="MalgunGothic, Malgun Gothic"><tspan x="-4" y="0">토</tspan></text>
    <g id="그룹_13" data-name="그룹 13" transform="translate(53.719 319.21)">
      <circle id="타원_10" data-name="타원 10" cx="1.043" cy="1.043" r="1.043" transform="translate(0 1.043)" fill="#bfbfbf"/>
      <circle id="타원_11" data-name="타원 11" cx="1.043" cy="1.043" r="1.043" transform="translate(6.255 1.043)" fill="#bfbfbf"/>
      <circle id="타원_12" data-name="타원 12" cx="1.043" cy="1.043" r="1.043" transform="translate(12.511 1.043)" fill="#bfbfbf"/>
      <circle id="타원_13" data-name="타원 13" cx="1.043" cy="1.043" r="1.043" transform="translate(18.766 1.043)" fill="#bfbfbf"/>
      <circle id="타원_14" data-name="타원 14" cx="1.043" cy="1.043" r="1.043" transform="translate(25.022 1.043)" fill="#bfbfbf"/>
      <circle id="타원_15" data-name="타원 15" cx="1.043" cy="1.043" r="1.043" transform="translate(31.277 1.043)" fill="#bfbfbf"/>
      <circle id="타원_16" data-name="타원 16" cx="1.043" cy="1.043" r="1.043" transform="translate(37.532 1.043)" fill="#bfbfbf"/>
      <circle id="타원_17" data-name="타원 17" cx="1.043" cy="1.043" r="1.043" transform="translate(43.788 1.043)" fill="#bfbfbf"/>
      <circle id="타원_18" data-name="타원 18" cx="1.043" cy="1.043" r="1.043" transform="translate(50.043 1.043)" fill="#bfbfbf"/>
      <circle id="타원_19" data-name="타원 19" cx="1.043" cy="1.043" r="1.043" transform="translate(56.299 1.043)" fill="#bfbfbf"/>
      <circle id="타원_20" data-name="타원 20" cx="1.043" cy="1.043" r="1.043" transform="translate(62.554 1.043)" fill="#bfbfbf"/>
      <circle id="타원_21" data-name="타원 21" cx="1.043" cy="1.043" r="1.043" transform="translate(68.809 1.043)" fill="#bfbfbf"/>
      <circle id="타원_22" data-name="타원 22" cx="1.043" cy="1.043" r="1.043" transform="translate(75.065 1.043)" fill="#bfbfbf"/>
      <circle id="타원_23" data-name="타원 23" cx="1.043" cy="1.043" r="1.043" transform="translate(81.32 1.043)" fill="#bfbfbf"/>
      <circle id="타원_24" data-name="타원 24" cx="1.043" cy="1.043" r="1.043" transform="translate(87.576 1.043)" fill="#bfbfbf"/>
      <circle id="타원_25" data-name="타원 25" cx="1.043" cy="1.043" r="1.043" transform="translate(93.831 1.043)" fill="#bfbfbf"/>
      <circle id="타원_26" data-name="타원 26" cx="1.043" cy="1.043" r="1.043" transform="translate(100.086 1.043)" fill="#bfbfbf"/>
      <circle id="타원_27" data-name="타원 27" cx="1.043" cy="1.043" r="1.043" transform="translate(106.342 1.043)" fill="#bfbfbf"/>
      <circle id="타원_28" data-name="타원 28" cx="1.043" cy="1.043" r="1.043" transform="translate(112.597 1.043)" fill="#bfbfbf"/>
      <circle id="타원_29" data-name="타원 29" cx="1.043" cy="1.043" r="1.043" transform="translate(118.853 1.043)" fill="#bfbfbf"/>
      <circle id="타원_30" data-name="타원 30" cx="1.043" cy="1.043" r="1.043" transform="translate(125.108 1.043)" fill="#bfbfbf"/>
      <circle id="타원_31" data-name="타원 31" cx="1.043" cy="1.043" r="1.043" transform="translate(131.363 1.043)" fill="#bfbfbf"/>
      <circle id="타원_32" data-name="타원 32" cx="1.043" cy="1.043" r="1.043" transform="translate(137.619 1.043)" fill="#bfbfbf"/>
      <circle id="타원_33" data-name="타원 33" cx="1.043" cy="1.043" r="1.043" transform="translate(143.874 1.043)" fill="#bfbfbf"/>
      <circle id="타원_34" data-name="타원 34" cx="1.043" cy="1.043" r="1.043" transform="translate(150.13 1.043)" fill="#bfbfbf"/>
      <circle id="타원_35" data-name="타원 35" cx="1.043" cy="1.043" r="1.043" transform="translate(156.385 1.043)" fill="#bfbfbf"/>
      <circle id="타원_36" data-name="타원 36" cx="1.043" cy="1.043" r="1.043" transform="translate(162.64 1.043)" fill="#bfbfbf"/>
      <circle id="타원_37" data-name="타원 37" cx="1.043" cy="1.043" r="1.043" transform="translate(168.896 1.043)" fill="#bfbfbf"/>
      <circle id="타원_38" data-name="타원 38" cx="1.043" cy="1.043" r="1.043" transform="translate(175.151 1.043)" fill="#bfbfbf"/>
      <circle id="타원_39" data-name="타원 39" cx="1.043" cy="1.043" r="1.043" transform="translate(181.407 1.043)" fill="#bfbfbf"/>
      <circle id="타원_40" data-name="타원 40" cx="1.043" cy="1.043" r="1.043" transform="translate(187.662 1.043)" fill="#bfbfbf"/>
      <circle id="타원_41" data-name="타원 41" cx="1.043" cy="1.043" r="1.043" transform="translate(193.917 1.043)" fill="#bfbfbf"/>
      <circle id="타원_42" data-name="타원 42" cx="1.043" cy="1.043" r="1.043" transform="translate(200.173 1.043)" fill="#bfbfbf"/>
      <circle id="타원_43" data-name="타원 43" cx="1.043" cy="1.043" r="1.043" transform="translate(206.428 1.043)" fill="#bfbfbf"/>
      <circle id="타원_44" data-name="타원 44" cx="1.043" cy="1.043" r="1.043" transform="translate(212.684 1.043)" fill="#bfbfbf"/>
      <circle id="타원_45" data-name="타원 45" cx="1.043" cy="1.043" r="1.043" transform="translate(218.939 1.043)" fill="#bfbfbf"/>
      <circle id="타원_46" data-name="타원 46" cx="2.085" cy="2.085" r="2.085" transform="translate(224.152)" fill="#bfbfbf"/>
      <circle id="타원_47" data-name="타원 47" cx="1.043" cy="1.043" r="1.043" transform="translate(231.45 1.043)" fill="#bfbfbf"/>
      <circle id="타원_48" data-name="타원 48" cx="1.043" cy="1.043" r="1.043" transform="translate(237.705 1.043)" fill="#bfbfbf"/>
      <circle id="타원_49" data-name="타원 49" cx="1.043" cy="1.043" r="1.043" transform="translate(243.961 1.043)" fill="#bfbfbf"/>
      <circle id="타원_50" data-name="타원 50" cx="1.043" cy="1.043" r="1.043" transform="translate(250.216 1.043)" fill="#bfbfbf"/>
      <circle id="타원_51" data-name="타원 51" cx="1.043" cy="1.043" r="1.043" transform="translate(256.471 1.043)" fill="#bfbfbf"/>
      <circle id="타원_52" data-name="타원 52" cx="1.043" cy="1.043" r="1.043" transform="translate(262.727 1.043)" fill="#bfbfbf"/>
      <circle id="타원_53" data-name="타원 53" cx="1.043" cy="1.043" r="1.043" transform="translate(268.982 1.043)" fill="#bfbfbf"/>
      <circle id="타원_54" data-name="타원 54" cx="1.043" cy="1.043" r="1.043" transform="translate(275.238 1.043)" fill="#bfbfbf"/>
      <circle id="타원_55" data-name="타원 55" cx="1.043" cy="1.043" r="1.043" transform="translate(281.493 1.043)" fill="#bfbfbf"/>
      <circle id="타원_56" data-name="타원 56" cx="1.043" cy="1.043" r="1.043" transform="translate(287.749 1.043)" fill="#bfbfbf"/>
      <circle id="타원_57" data-name="타원 57" cx="1.043" cy="1.043" r="1.043" transform="translate(294.004 1.043)" fill="#bfbfbf"/>
    </g>
    <g id="그룹_222" data-name="그룹 222">
      <rect id="사각형_51" data-name="사각형 51" width="10.426" height="4.17" rx="2" transform="translate(59.719 319.21)" fill="#5b6543"/>
      <rect id="사각형_156" data-name="사각형 156" width="10.426" height="4.17" rx="2" transform="translate(71.719 319.21)" fill="#5b6543"/>
      <text id="_5" data-name="+5" transform="translate(64.719 314.763)" font-size="8" font-family="SegoeUI, Segoe UI"><tspan x="-4.893" y="0">+5</tspan></text>
      <text id="_4" data-name="+4" transform="translate(76.719 314.763)" font-size="8" font-family="SegoeUI, Segoe UI"><tspan x="-4.893" y="0">+4</tspan></text>
      <rect id="사각형_52" data-name="사각형 52" width="10.426" height="4.17" rx="2" transform="translate(109.528 319.21)" fill="#5b6543"/>
      <text id="_4-2" data-name="+4" transform="translate(114.529 314.763)" font-size="8" font-family="SegoeUI, Segoe UI"><tspan x="-4.893" y="0">+4</tspan></text>
      <rect id="사각형_53" data-name="사각형 53" width="10.426" height="4.17" rx="2" transform="translate(121.805 319.21)" fill="#5b6543"/>
      <text id="_4-3" data-name="+4" transform="translate(126.806 314.763)" font-size="8" font-family="SegoeUI, Segoe UI"><tspan x="-4.893" y="0">+4</tspan></text>
      <rect id="사각형_54" data-name="사각형 54" width="10.426" height="4.17" rx="2" transform="translate(147.55 319.21)" fill="#5b6543"/>
      <text id="_1" data-name="+1" transform="translate(152.551 314.763)" font-size="8" font-family="SegoeUI, Segoe UI"><tspan x="-4.893" y="0">+1</tspan></text>
      <rect id="사각형_55" data-name="사각형 55" width="10.426" height="4.17" rx="2" transform="translate(160.061 319.21)" fill="#5b6543"/>
      <text id="_6" data-name="+6" transform="translate(165.062 314.763)" font-size="8" font-family="SegoeUI, Segoe UI"><tspan x="-4.893" y="0">+6</tspan></text>
      <rect id="사각형_56" data-name="사각형 56" width="10.426" height="4.17" rx="2" transform="translate(97.251 319.21)" fill="#5b6543"/>
      <text id="_2" data-name="+2" transform="translate(102.252 314.763)" font-size="8" font-family="SegoeUI, Segoe UI"><tspan x="-4.893" y="0">+2</tspan></text>
      <rect id="사각형_57" data-name="사각형 57" width="10.426" height="4.17" rx="2" transform="translate(171.827 319.21)" fill="#5b6543"/>
      <text id="_5-2" data-name="+5" transform="translate(176.828 314.763)" font-size="8" font-family="SegoeUI, Segoe UI"><tspan x="-4.893" y="0">+5</tspan></text>
    </g>
    <text id="_12" data-name="12" transform="translate(188.467 225.103)" fill="#5b6543" font-size="8" font-family="SegoeUI, Segoe UI"><tspan x="-4.313" y="0">12</tspan></text>
    <text id="_11" data-name="11" transform="translate(382.851 243.869)" fill="#666" font-size="8" font-family="SegoeUI, Segoe UI"><tspan x="-4.313" y="0">11</tspan></text>
    <text id="지난주" transform="translate(350.851 243.869)" fill="#666" font-size="8" font-family="MalgunGothic, Malgun Gothic"><tspan x="0" y="0">지난주</tspan></text>
  </g>
</svg>
