<?xml version="1.0" encoding="UTF-8"?><svg id="Layer_2" xmlns="http://www.w3.org/2000/svg" viewBox="0 0 328.71 123.5"><defs><style>.cls-1,.cls-2,.cls-3{fill:#5b6543;}.cls-4{fill:#bfbfbf;}.cls-5,.cls-6,.cls-3{font-size:8px;}.cls-5,.cls-3{font-family:NotoSansKR-Bold-KSCpc-EUC-H, 'Noto Sans KR';font-weight:700;}.cls-7{stroke:#000;stroke-width:.83px;}.cls-7,.cls-8{fill:none;stroke-miterlimit:10;}.cls-7,.cls-2{opacity:.15;}.cls-9{opacity:.05;}.cls-8{opacity:.3;stroke:#5b6543;}.cls-6{fill:#666;font-family:NotoSansKR-Regular-KSCpc-EUC-H, 'Noto Sans KR';}</style></defs><g id="Layer_2-2"><g><g><polyline class="cls-9" points="23.27 98.94 26.27 87.3 41.27 87.3 47.27 65.78 65.27 65.78 68.27 57.62 149.27 57.62 151.27 51.34 179.27 51.34 185.27 33.41 211.27 33.41 215.27 22.97 299.27 22.94 299.27 98.94"/><polyline class="cls-7" points="23.27 98.94 26.27 87.3 41.27 87.3 47.27 65.78 65.27 65.78 68.27 57.62 149.27 57.62 151.27 51.34 179.27 51.34 185.27 33.41 211.27 33.41 215.27 22.97 299.27 22.94"/></g><g><polyline class="cls-2" points="125.27 98.94 131.27 80.3 164.27 80.3 168.27 65.78 191.27 65.78 196.27 57.62 204.27 57.62 208.27 51.34 214.27 51.34 222.27 33.41 228.27 33.41 233.27 22.97 245.27 22.97 251.27 12.94 257.27 12.94 257.27 98.94"/><polyline class="cls-8" points="125.27 98.94 131.27 80.3 164.27 80.3 168.27 65.78 191.27 65.78 196.27 57.62 204.27 57.62 208.27 51.34 214.27 51.34 222.27 33.41 228.27 33.41 233.27 22.97 245.27 22.97 251.27 12.94 257.27 12.94"/></g><text class="cls-6" transform="translate(0 115.12)"><tspan x="0" y="0">오전 12시</tspan></text><text class="cls-6" transform="translate(75.11 115.12)"><tspan x="0" y="0">오전 6시</tspan></text><text class="cls-6" transform="translate(219.11 115.12)"><tspan x="0" y="0">오후 6시</tspan></text><text class="cls-6" transform="translate(144.89 115.12)"><tspan x="0" y="0">오후 12시</tspan></text><text class="cls-6" transform="translate(282.89 115.12)"><tspan x="0" y="0">오전 12시</tspan></text><g><circle class="cls-4" cx="17.27" cy="98.94" r="1"/><circle class="cls-4" cx="23.27" cy="98.94" r="1"/><circle class="cls-4" cx="29.27" cy="98.94" r="1"/><circle class="cls-4" cx="35.27" cy="98.94" r="1"/><circle class="cls-4" cx="41.27" cy="98.94" r="1"/><circle class="cls-4" cx="47.27" cy="98.94" r="1"/><circle class="cls-4" cx="53.27" cy="98.94" r="1"/><circle class="cls-4" cx="59.27" cy="98.94" r="1"/><circle class="cls-4" cx="65.27" cy="98.94" r="1"/><circle class="cls-4" cx="71.27" cy="98.94" r="1"/><circle class="cls-4" cx="77.27" cy="98.94" r="1"/><circle class="cls-4" cx="83.27" cy="98.94" r="1"/><circle class="cls-4" cx="89.27" cy="98.94" r="1"/><circle class="cls-4" cx="95.27" cy="98.94" r="1"/><circle class="cls-4" cx="101.27" cy="98.94" r="1"/><circle class="cls-4" cx="107.27" cy="98.94" r="1"/><circle class="cls-4" cx="113.27" cy="98.94" r="1"/><circle class="cls-4" cx="119.27" cy="98.94" r="1"/><circle class="cls-4" cx="125.27" cy="98.94" r="1"/><circle class="cls-4" cx="131.27" cy="98.94" r="2"/><circle class="cls-4" cx="137.27" cy="98.94" r="1"/><circle class="cls-4" cx="143.27" cy="98.94" r="1"/><circle class="cls-4" cx="149.27" cy="98.94" r="1"/><circle class="cls-4" cx="155.27" cy="98.94" r="1"/><circle class="cls-4" cx="161.27" cy="98.94" r="1"/><circle class="cls-4" cx="167.27" cy="98.94" r="1"/><circle class="cls-4" cx="173.27" cy="98.94" r="1"/><circle class="cls-4" cx="179.27" cy="98.94" r="1"/><circle class="cls-4" cx="185.27" cy="98.94" r="1"/><circle class="cls-4" cx="191.27" cy="98.94" r="1"/><circle class="cls-4" cx="197.27" cy="98.94" r="1"/><circle class="cls-4" cx="203.27" cy="98.94" r="1"/><circle class="cls-4" cx="209.27" cy="98.94" r="1"/><circle class="cls-4" cx="215.27" cy="98.94" r="1"/><circle class="cls-4" cx="221.27" cy="98.94" r="1"/><circle class="cls-4" cx="227.27" cy="98.94" r="1"/><circle class="cls-4" cx="233.27" cy="98.94" r="2"/><circle class="cls-4" cx="239.27" cy="98.94" r="1"/><circle class="cls-4" cx="245.27" cy="98.94" r="1"/><circle class="cls-4" cx="251.27" cy="98.94" r="1"/><circle class="cls-4" cx="257.27" cy="98.94" r="1"/><circle class="cls-4" cx="263.27" cy="98.94" r="1"/><circle class="cls-4" cx="269.27" cy="98.94" r="1"/><circle class="cls-4" cx="275.27" cy="98.94" r="1"/><circle class="cls-4" cx="281.27" cy="98.94" r="1"/><circle class="cls-4" cx="287.27" cy="98.94" r="1"/><circle class="cls-4" cx="293.27" cy="98.94" r="1"/><circle class="cls-4" cx="299.27" cy="98.94" r="1"/></g><rect class="cls-1" x="123.27" y="96.94" width="10" height="4" rx="2" ry="2"/><text class="cls-5" transform="translate(123.56 93.04)"><tspan x="0" y="0">+2</tspan></text><rect class="cls-1" x="189.27" y="96.94" width="10" height="4" rx="2" ry="2"/><text class="cls-5" transform="translate(189.56 93.04)"><tspan x="0" y="0">+1</tspan></text><rect class="cls-1" x="201.27" y="96.94" width="10" height="4" rx="2" ry="2"/><text class="cls-5" transform="translate(201.56 93.04)"><tspan x="0" y="0">+1</tspan></text><rect class="cls-1" x="213.27" y="96.94" width="10" height="4" rx="2" ry="2"/><text class="cls-5" transform="translate(213.56 93.04)"><tspan x="0" y="0">+3</tspan></text><rect class="cls-1" x="225.27" y="96.94" width="10" height="4" rx="2" ry="2"/><text class="cls-5" transform="translate(225.56 93.04)"><tspan x="0" y="0">+2</tspan></text><rect class="cls-1" x="159.27" y="96.94" width="10" height="4" rx="2" ry="2"/><text class="cls-5" transform="translate(159.56 93.04)"><tspan x="0" y="0">+2</tspan></text><rect class="cls-1" x="243.27" y="96.94" width="10" height="4" rx="2" ry="2"/><text class="cls-5" transform="translate(243.56 93.04)"><tspan x="0" y="0">+1</tspan></text><text class="cls-3" transform="translate(248.56 7.04)"><tspan x="0" y="0">12</tspan></text><text class="cls-6" transform="translate(319.83 25.04)"><tspan x="0" y="0">11</tspan></text><text class="cls-6" transform="translate(301.91 25.04)"><tspan x="0" y="0">어제</tspan></text></g></g></svg>