<svg id="그룹_83" data-name="그룹 83" xmlns="http://www.w3.org/2000/svg" width="20" height="20" viewBox="0 0 20 20">
  <path id="패스_72" data-name="패스 72" d="M20.806,0A1.806,1.806,0,0,0,19,1.806V5.418a1.806,1.806,0,0,0,3.612,0V1.806A1.806,1.806,0,0,0,20.806,0" transform="translate(-5.501 0)" fill="#5b6543"/>
  <path id="패스_73" data-name="패스 73" d="M5.806,0A1.806,1.806,0,0,0,4,1.806V5.418a1.806,1.806,0,0,0,3.612,0V1.806A1.806,1.806,0,0,0,5.806,0" transform="translate(-1.11 0)" fill="#5b6543"/>
  <path id="패스_74" data-name="패스 74" d="M19.286,4H17.857V6.5a2.5,2.5,0,0,1-5,0V4H7.143V6.5a2.5,2.5,0,0,1-5,0V4H.714A.714.714,0,0,0,0,4.713V20.4a.714.714,0,0,0,.714.713H19.286A.714.714,0,0,0,20,20.4V4.713A.714.714,0,0,0,19.286,4" transform="translate(0 -1.11)" fill="#5b6543"/>
  <path id="패스_75" data-name="패스 75" d="M9.789,13.7H12.27c2.761,0,4.472,1.261,4.472,3.955s-1.711,4.019-4.375,4.019H9.789Zm2.37,6.692A2.427,2.427,0,0,0,14.9,17.655c0-1.95-1.051-2.683-2.737-2.683H11.6v5.42Z" transform="translate(-2.838 -4.03)" fill="#fff"/>
</svg>
