<svg xmlns="http://www.w3.org/2000/svg" width="26" height="18" viewBox="0 0 26 18">
  <path id="friends_icon" d="M7.8,41a4.5,4.5,0,1,0-4.55-4.5A4.523,4.523,0,0,0,7.8,41Zm3.12,1.286h-.337a6.345,6.345,0,0,1-5.566,0H4.68A4.656,4.656,0,0,0,0,46.914v1.157A1.94,1.94,0,0,0,1.95,50h11.7a1.94,1.94,0,0,0,1.95-1.929V46.914A4.656,4.656,0,0,0,10.92,42.286ZM19.5,41a3.857,3.857,0,1,0-3.9-3.857A3.88,3.88,0,0,0,19.5,41Zm1.95,1.286H21.3a5.176,5.176,0,0,1-3.591,0H17.55a4.55,4.55,0,0,0-2.263.619,5.845,5.845,0,0,1,1.613,4.01v1.543c0,.088-.02.173-.024.257H24.05A1.94,1.94,0,0,0,26,46.786,4.523,4.523,0,0,0,21.45,42.286Z" transform="translate(0 -32)" fill="#5b6543"/>
</svg>
