<svg id="그룹_84" data-name="그룹 84" xmlns="http://www.w3.org/2000/svg" width="20" height="20" viewBox="0 0 20 20">
  <path id="패스_76" data-name="패스 76" d="M100.806,0A1.806,1.806,0,0,0,99,1.806V5.418a1.806,1.806,0,1,0,3.612,0V1.806A1.806,1.806,0,0,0,100.806,0" transform="translate(-85.501)" fill="#5b6543"/>
  <path id="패스_77" data-name="패스 77" d="M85.806,0A1.806,1.806,0,0,0,84,1.806V5.418a1.806,1.806,0,0,0,3.612,0V1.806A1.806,1.806,0,0,0,85.806,0" transform="translate(-81.11)" fill="#5b6543"/>
  <path id="패스_78" data-name="패스 78" d="M99.286,4H97.857V6.5a2.5,2.5,0,0,1-5,0V4H87.143V6.5a2.5,2.5,0,0,1-5,0V4H80.714A.714.714,0,0,0,80,4.713V20.4a.714.714,0,0,0,.714.713H99.286A.714.714,0,0,0,100,20.4V4.713A.714.714,0,0,0,99.286,4" transform="translate(-80 -1.11)" fill="#5b6543"/>
  <path id="패스_79" data-name="패스 79" d="M88.634,13.7h2l1.539,3.728c.2.5.366,1.024.55,1.542h.061c.2-.517.354-1.045.55-1.542l1.5-3.728h2v7.974H95.2V18.346c0-.755.134-1.864.22-2.619h-.049L94.633,17.6l-1.393,3.352H92.2L90.8,17.6l-.721-1.875h-.049c.086.754.233,1.864.233,2.619v3.329H88.634Z" transform="translate(-82.515 -4.03)" fill="#fff"/>
  <rect id="사각형_112" data-name="사각형 112" width="19.773" height="19.773" transform="translate(0.104 0.227)" fill="none"/>
</svg>
