<svg xmlns="http://www.w3.org/2000/svg" width="16" height="20" viewBox="0 0 16 20">
  <path id="ring_icon" d="M8,20a2.4,2.4,0,0,0,2.285-2.5H5.715A2.4,2.4,0,0,0,8,20Zm7.692-5.848c-.69-.811-1.981-2.031-1.981-6.027A6.052,6.052,0,0,0,9.141,2.064V1.25A1.2,1.2,0,0,0,8,0,1.2,1.2,0,0,0,6.857,1.25v.814A6.052,6.052,0,0,0,2.288,8.125c0,4-1.291,5.216-1.981,6.027A1.285,1.285,0,0,0,0,15a1.2,1.2,0,0,0,1.146,1.25H14.853A1.2,1.2,0,0,0,16,15,1.285,1.285,0,0,0,15.692,14.152Z" transform="translate(0.001)" fill="#5b6543"/>
</svg>
