<svg id="그룹_85" data-name="그룹 85" xmlns="http://www.w3.org/2000/svg" width="20" height="20" viewBox="0 0 20 20">
  <path id="패스_80" data-name="패스 80" d="M60.806,0A1.806,1.806,0,0,0,59,1.806V5.418a1.806,1.806,0,0,0,3.612,0V1.806A1.806,1.806,0,0,0,60.806,0" transform="translate(-45.501 0)" fill="#5b6543"/>
  <path id="패스_81" data-name="패스 81" d="M45.806,0A1.806,1.806,0,0,0,44,1.806V5.418a1.806,1.806,0,1,0,3.612,0V1.806A1.806,1.806,0,0,0,45.806,0" transform="translate(-41.11 0)" fill="#5b6543"/>
  <path id="패스_82" data-name="패스 82" d="M59.286,4H57.857V6.5a2.5,2.5,0,0,1-5,0V4H47.143V6.5a2.5,2.5,0,0,1-5,0V4H40.714A.714.714,0,0,0,40,4.713V20.4a.714.714,0,0,0,.714.713H59.286A.714.714,0,0,0,60,20.4V4.713A.714.714,0,0,0,59.286,4" transform="translate(-40 -1.11)" fill="#5b6543"/>
  <path id="패스_83" data-name="패스 83" d="M46.555,13.7h1.806l.706,3.89c.132.841.275,1.692.407,2.544h.048c.179-.852.371-1.713.562-2.544l1.028-3.89h1.507l1.029,3.89c.191.819.371,1.681.562,2.544h.059c.132-.863.264-1.713.395-2.544l.694-3.89h1.686l-1.638,7.974H53.2l-.993-3.944c-.144-.625-.275-1.239-.383-1.843h-.048c-.119.6-.239,1.218-.383,1.843l-.969,3.944H48.265Z" transform="translate(-41.82 -4.03)" fill="#fff"/>
</svg>
